<svg id="Layer_1" data-name="Layer 1" xmlns="http://www.w3.org/2000/svg" viewBox="0 0 108.47 137.8"><defs><style>.cls-1{fill:#fff;}</style></defs><path class="cls-1" d="M671.67,271.23c-3.84,7.39-7.52,14.44-11.18,21.5Q649,314.79,637.6,336.86c-5.5,10.63-5.37,21.48-.83,32.3,6.19,14.75,21.35,24.51,36.5,23.81,17.5-.81,33.54-15.39,36.09-32.79,1.27-8.72.26-17-4.26-24.75-1.56-2.68-2.91-5.49-4.29-8.28-.95-1.92-.44-3.7,1.16-4.47a3.1,3.1,0,0,1,4.31,1.7c2.93,6.19,6.9,11.88,8.55,18.7,6.61,27.34-13.6,54.64-41.59,56.05-16.64.84-34-10-41.36-25.75-5.2-11.13-6.19-22.63-2-34.19,2-5.47,5.07-10.55,7.76-15.75q15.36-29.68,30.78-59.35c.74-1.43,1.5-2.7,3.3-2.71s2.59,1.26,3.33,2.68q12.9,25,25.85,49.93c1.24,2.39.93,4.13-.88,5.06s-3.36.1-4.6-2.29q-11.39-22-22.79-43.94C672.37,272.38,672.09,272,671.67,271.23Z" transform="translate(-627.27 -261.38)"/><path class="cls-1" d="M719.3,316.25c-11.69,0-19.8-12.94-14.6-23.43,3.86-7.78,7.94-15.45,12.07-23.09a3.87,3.87,0,0,1,2.79-1.79,3.6,3.6,0,0,1,2.56,1.8c4.07,7.59,8.08,15.21,11.94,22.91C739.42,303.36,731.29,316.28,719.3,316.25Zm.2-39.82c-.73,1.25-1.15,1.9-1.5,2.58-2.64,5.07-5.37,10.1-7.83,15.25a14.82,14.82,0,0,0-1.35,5.78c-.14,6,5.4,11.29,11.13,10.85,6.31-.49,11.29-6.61,10.06-12.72a26.73,26.73,0,0,0-2.56-6.36C725,286.84,722.36,281.94,719.5,276.43Z" transform="translate(-627.27 -261.38)"/></svg>