<svg id="Layer_1" data-name="Layer 1" xmlns="http://www.w3.org/2000/svg" viewBox="0 0 137.04 127.66"><defs><style>.cls-1{fill:#fff;}</style></defs><path class="cls-1" d="M680.66,340.88A38.29,38.29,0,0,1,696,326.77c17.87-9,38.89-2,48.17,16.12,8.55,16.7,6.52,32.93-2.38,48.78A59.23,59.23,0,0,1,729.39,407q-23.94,21.4-47.92,42.78c-.25.22-.53.43-.9.73q-8.4-7.62-16.78-15.22c-11.36-10.36-23-20.43-34-31.2s-17.36-24.29-17.26-39.94c.08-13.41,5-25.12,15.7-33.7,16.14-12.9,39.43-8.92,51.14,8.56C679.76,339.55,680.15,340.11,680.66,340.88Zm0,13c-.73-1.69-1.23-3.05-1.88-4.33a70.14,70.14,0,0,0-4.28-8c-10.38-15.19-31.15-17.73-44.48-5.45a36.81,36.81,0,0,0-12,27.82c-.06,14.95,6.27,27.46,16.91,37.6,11.74,11.18,23.93,21.88,35.93,32.79,3.26,3,6.54,5.91,9.79,8.85a7.64,7.64,0,0,0,.68-.5c15-13.37,30.08-26.67,45-40.16A53.72,53.72,0,0,0,743,373.66c3.08-14.08,0-26.81-10.39-36.88-15.15-14.75-39.82-9.56-48.86,9.82C682.74,348.86,681.8,351.17,680.62,353.89Z" transform="translate(-612.54 -322.83)"/><path class="cls-1" d="M626.71,360.82c.13-11.47,10.08-22.61,21.64-24.21,1.3-.18,2.61-.34,3.91-.39,1.61-.06,2.78.65,2.77,2.37s-1.08,2.19-2.63,2.29c-8.72.61-15.3,4.61-19,12.63a27.15,27.15,0,0,0-1.93,7.37c-.42,2.8-.87,3.85-2.55,3.68C626.5,364.33,626.69,362.51,626.71,360.82Z" transform="translate(-612.54 -322.83)"/></svg>