<svg id="Layer_1" data-name="Layer 1" xmlns="http://www.w3.org/2000/svg" viewBox="0 0 146.32 120.01"><defs><style>.cls-1{fill:#fff;}.cls-2{fill:#cb9932;}</style></defs><path class="cls-1" d="M714.07,390.79c-11.63-.19-21.27-4.09-29.19-12q-29.07-29-58.09-58.07c-.32-.33-.67-.64-1-1a2.67,2.67,0,0,1,0-3.74,2.62,2.62,0,0,1,3.73-.08,14.05,14.05,0,0,1,1.24,1.2c19.24,19.24,38.42,38.54,57.74,57.69,10,9.94,22.15,13.1,35.61,8.94s21.56-13.51,24.18-27.22c2.27-11.93-1.08-22.53-9.62-31.23-10.46-10.66-21.09-21.14-31.64-31.69a11.77,11.77,0,0,1-1.2-1.25A2.51,2.51,0,0,1,706,289a2.57,2.57,0,0,1,3.44-.53,7,7,0,0,1,1.42,1.25c10.52,10.51,21.17,20.9,31.51,31.58,11.56,11.93,15,26.2,9.74,41.9s-16.88,24.67-33.29,27.24C717.09,390.72,715.34,390.7,714.07,390.79Z" transform="translate(-608.18 -270.78)"/><path class="cls-1" d="M684.39,350.09A29.2,29.2,0,0,1,714,320.85c16.32,0,29.11,13.15,29.08,29.87,0,15.74-13.35,28.8-29.36,28.77A29.31,29.31,0,0,1,684.39,350.09Zm29.36,24a24,24,0,1,0-24-23.94A24,24,0,0,0,713.75,374.11Z" transform="translate(-608.18 -270.78)"/><path class="cls-1" d="M610.69,276.24a23.67,23.67,0,0,1,2.66,1.9c4.59,4.54,9.15,9.12,13.71,13.68l47.56,47.56c.33.33.67.64,1,1a2.62,2.62,0,0,1-.06,3.73,2.54,2.54,0,0,1-3.59.16,10,10,0,0,1-1-.94l-61.14-61.14c-.95-.95-2.07-2-1.41-3.41A11.91,11.91,0,0,1,610.69,276.24Z" transform="translate(-608.18 -270.78)"/><path class="cls-1" d="M673.52,306.84c-.67.9-1.08,1.94-1.82,2.29a4.57,4.57,0,0,1-2.73-.08c-.48-.12-.86-.72-1.27-1.13l-31.78-31.78a7.58,7.58,0,0,1-1.06-1.14,2.65,2.65,0,0,1,3.5-3.83,5.06,5.06,0,0,1,1.19,1q16.08,16.08,32.14,32.17A21.29,21.29,0,0,1,673.52,306.84Z" transform="translate(-608.18 -270.78)"/><path class="cls-2" d="M679.14,286.17c.55-.82.84-1.77,1.43-2a5.33,5.33,0,0,1,2.6,0c.33.05.61.5.89.78l22.78,22.71c.95,1,1.89,1.94,1.07,3.46a2.29,2.29,0,0,1-3.5.87,8.09,8.09,0,0,1-1-.93q-11.31-11.29-22.61-22.63A18,18,0,0,1,679.14,286.17Z" transform="translate(-608.18 -270.78)"/><path class="cls-1" d="M704.54,335.09a7.82,7.82,0,1,1-7.92,7.44A7.67,7.67,0,0,1,704.54,335.09Zm-.16,5.33a2.58,2.58,0,0,0-2.48,2.41,2.51,2.51,0,0,0,2.55,2.49,2.42,2.42,0,0,0,2.38-2.46A2.56,2.56,0,0,0,704.38,340.42Z" transform="translate(-608.18 -270.78)"/><path class="cls-1" d="M705.84,360.45a2.68,2.68,0,1,1-5.35,0,2.68,2.68,0,0,1,5.35,0Z" transform="translate(-608.18 -270.78)"/><path class="cls-1" d="M724.63,336.91a2.51,2.51,0,0,1-2.66,2.52,2.58,2.58,0,0,1-2.71-2.67,2.69,2.69,0,0,1,2.68-2.58A2.66,2.66,0,0,1,724.63,336.91Z" transform="translate(-608.18 -270.78)"/><path class="cls-1" d="M712.33,369.17a2.65,2.65,0,1,1,2.62-2.62A2.66,2.66,0,0,1,712.33,369.17Z" transform="translate(-608.18 -270.78)"/><path d="M723.33,358.78a5.15,5.15,0,0,1-5.2-5.07,5.18,5.18,0,0,1,10.36,0A5.15,5.15,0,0,1,723.33,358.78Z" transform="translate(-608.18 -270.78)"/></svg>