<svg id="Layer_1" data-name="Layer 1" xmlns="http://www.w3.org/2000/svg" viewBox="0 0 204.55 118.13"><defs><style>.cls-1{fill:#fff;}</style></defs><path class="cls-1" d="M780.79,291.52a20.23,20.23,0,0,1-13.42-5.09c-1.64-1.4-3.2-2.89-4.85-4.28a14,14,0,0,0-18.66-.11c-2.05,1.68-3.93,3.57-6,5.19a21.17,21.17,0,0,1-26.05-.14c-1.76-1.38-3.36-2.95-5.06-4.42-6.44-5.57-13.75-5.47-20.2.09-2.75,2.37-5.47,5-8.67,6.57-7.47,3.7-15,3.1-21.84-1.77-2.29-1.63-4.28-3.67-6.44-5.47a14,14,0,0,0-18.46-.14c-1.55,1.25-3,2.66-4.46,4-8.76,7.61-20.17,7.68-29,.17-1.14-1-2.25-2-3.33-3a15.3,15.3,0,0,0-10-4.51c-2.9-.15-4.13-1.4-4.06-3.62s1.58-3.43,4.55-3.37a19.85,19.85,0,0,1,12.72,4.91c1.59,1.33,3.09,2.77,4.66,4.12,6.08,5.21,13.29,5.26,19.44.13,1.71-1.43,3.31-3,5-4.41a21.17,21.17,0,0,1,27.43.3c1.78,1.49,3.43,3.13,5.24,4.58a14,14,0,0,0,18.27-.12c1.72-1.42,3.33-3,5-4.43a21.24,21.24,0,0,1,27.44-.39c1.88,1.5,3.59,3.2,5.44,4.73a14,14,0,0,0,18.66,0c2.1-1.74,4-3.69,6.23-5.32a21.21,21.21,0,0,1,25.68.27,32.25,32.25,0,0,1,3,2.59c3.43,3.44,7.24,6,12.36,6.05,2.17,0,3.35,1.44,3.27,3.59s-1.4,3.26-3.55,3.35C780.94,291.54,780.61,291.52,780.79,291.52Z" transform="translate(-580.31 -271.45)"/><path class="cls-1" d="M640.26,369.47A20.6,20.6,0,0,1,654.75,375c1.67,1.49,3.28,3.05,5,4.42a13.93,13.93,0,0,0,17.28,0c2-1.57,3.85-3.4,5.84-5a21.29,21.29,0,0,1,27.81.21c1.46,1.23,2.84,2.55,4.28,3.8,6,5.3,13.52,5.36,19.62.14,1.38-1.18,2.71-2.44,4.08-3.63,8.4-7.27,19.61-7.48,28.21-.49,1.73,1.4,3.34,3,5,4.42a13.52,13.52,0,0,0,8.82,3.47c2.65,0,4.13,1.48,4.07,3.67s-1.52,3.35-4.28,3.37A19.85,19.85,0,0,1,767,384.05c-1.51-1.3-2.93-2.69-4.46-4-5.81-4.83-13-4.84-18.85,0-1.34,1.1-2.59,2.32-3.91,3.46-9.36,8.1-20.59,8.07-29.9-.08-1.44-1.26-2.8-2.61-4.29-3.78a14,14,0,0,0-18.08.19c-2,1.68-3.93,3.58-6,5.19a21.12,21.12,0,0,1-26.26-.14c-2-1.53-3.73-3.29-5.64-4.87-5.76-4.75-12.85-4.78-18.65-.07-1.93,1.57-3.71,3.32-5.63,4.9A19.22,19.22,0,0,1,612,389.39a3.12,3.12,0,0,1-3.38-3.19c-.14-2.2,1-3.75,3.1-3.73,5.5.07,9.3-2.94,12.95-6.45C629,371.83,634.07,369.31,640.26,369.47Z" transform="translate(-580.31 -271.45)"/><path class="cls-1" d="M725,357a22,22,0,0,1-15.26-6.3c-1.28-1.19-2.55-2.39-3.9-3.47-5.67-4.51-12.59-4.5-18.27.06-1.8,1.44-3.46,3.09-5.24,4.57a21.33,21.33,0,0,1-27.82-.14c-1.45-1.23-2.83-2.55-4.28-3.79-6.29-5.42-13.53-5.44-19.79-.08-1.95,1.67-3.79,3.49-5.85,5a21.2,21.2,0,0,1-25.85-.63c-1.67-1.35-3.24-2.83-4.85-4.26a14.37,14.37,0,0,0-9.63-4c-2.57,0-4.05-1.64-3.89-3.83s1.83-3.35,4.45-3.26a20.93,20.93,0,0,1,13.5,5.52c1.49,1.33,2.94,2.69,4.47,4a14,14,0,0,0,18.06.4c2.1-1.61,4-3.51,6-5.17a21.21,21.21,0,0,1,27,.15c1.73,1.42,3.33,3,5,4.42,6,5,13.31,5,19.24-.11,1.39-1.19,2.71-2.45,4.09-3.64,8.71-7.48,20-7.52,28.78-.1,1,.86,2,1.72,3,2.66a15.3,15.3,0,0,0,14.53,4.51c2.5-.47,4.18.62,4.56,2.65s-1,3.88-3.43,4.32C728.08,356.67,726.51,356.78,725,357Z" transform="translate(-580.31 -271.45)"/><path class="cls-1" d="M696.57,311.26a13.31,13.31,0,0,0-8.72,3.08c-2.17,1.79-4.2,3.76-6.42,5.5a21.2,21.2,0,0,1-25.86.07,60.61,60.61,0,0,1-4.68-4.09,3.54,3.54,0,0,1-.47-5.1,3.7,3.7,0,0,1,5.31-.07c1.2,1,2.34,2.12,3.55,3.12a14,14,0,0,0,18.27.08c1.8-1.46,3.45-3.11,5.24-4.59a21.29,21.29,0,0,1,28,.2c1.52,1.29,3,2.67,4.47,4,5.92,5,13.29,5,19.24,0,1.45-1.23,2.83-2.55,4.28-3.78,8.71-7.41,20.09-7.38,28.78.07,1.58,1.35,3.08,2.77,4.66,4.12a13.73,13.73,0,0,0,8.63,3.32c2.62.09,4.1,1.51,4,3.7s-1.68,3.37-4.36,3.32a19.43,19.43,0,0,1-12.36-4.51c-2.12-1.73-4.08-3.65-6.22-5.35a14,14,0,0,0-17.48-.07c-1.83,1.42-3.49,3.05-5.25,4.57a21.34,21.34,0,0,1-28.4.12c-1.58-1.34-3.07-2.79-4.65-4.12A13.52,13.52,0,0,0,696.57,311.26Z" transform="translate(-580.31 -271.45)"/><path class="cls-1" d="M585.52,304.21A19.59,19.59,0,0,1,597,308.66c2.11,1.74,4.08,3.64,6.22,5.35a14,14,0,0,0,17.66.06c1.89-1.49,3.6-3.18,5.43-4.74a20.92,20.92,0,0,1,18.34-4.71c2.37.44,3.7,2.16,3.35,4.11a3.54,3.54,0,0,1-4.49,2.85c-5.64-1.13-10.27.65-14.21,4.62-5.24,5.28-11.25,8.61-19,7.95a21.07,21.07,0,0,1-12.34-5.24c-1.63-1.41-3.22-2.86-4.85-4.27a13.64,13.64,0,0,0-8.36-3.38c-3-.19-4.4-1.34-4.35-3.61S582,304.12,585.52,304.21Z" transform="translate(-580.31 -271.45)"/><path class="cls-1" d="M753.37,337.25c5.76-.21,10.66,2.27,14.93,6.25,3,2.83,6,5.77,10.36,6.43a22.81,22.81,0,0,0,2.46.26c2.07.1,3.44,1.25,3.35,3.21s-1.51,2.92-3.6,3a18.45,18.45,0,0,1-12-4c-1.89-1.47-3.63-3.13-5.46-4.68-6.79-5.73-14.16-5.67-20.8.17-2.6,2.28-4.63,2.61-6,1s-1-3.18,1.71-5.6C743.2,338.85,747.19,337.25,753.37,337.25Z" transform="translate(-580.31 -271.45)"/><path class="cls-1" d="M585.51,369.48a19.85,19.85,0,0,1,11.81,4.73q3.43,2.87,6.79,5.83a3.36,3.36,0,0,1,.62,4.88,3.23,3.23,0,0,1-4.83.76,63.07,63.07,0,0,1-5.88-5,15.5,15.5,0,0,0-9.57-4.24c-3-.25-4.3-1.5-4.13-3.78S582.06,369.42,585.51,369.48Z" transform="translate(-580.31 -271.45)"/></svg>