<svg xmlns="http://www.w3.org/2000/svg" xmlns:xlink="http://www.w3.org/1999/xlink" width="163" height="57" viewBox="0 0 163 57">
    <defs>
        <path id="a" d="M.054.655h99.36v53.292H.053z"/>
    </defs>
    <g fill="none" fill-rule="evenodd">
        <g transform="translate(32 1)">
            <mask id="b" fill="#fff">
                <use xlink:href="#a"/>
            </mask>
            <path fill="#000105" d="M94.304 34.167l4.63-1.364-.572-3.965c-.245-1.708-.78-3.201-1.589-4.44a10.257 10.257 0 0 0-2.892-2.945 10.65 10.65 0 0 0-3.53-1.528 13.827 13.827 0 0 0-3.085-.362c-1.374 0-2.772.183-4.156.544-.439.114-.867.247-1.287.398.19-1.683-.078-3.212-.802-4.551a7.34 7.34 0 0 0-3.114-3.067c-1.146-.597-2.422-.913-3.798-.94a8.924 8.924 0 0 0-3.851.79 9.034 9.034 0 0 0-3.14 2.364c-1.041 1.21-1.677 2.68-1.887 4.355a8.935 8.935 0 0 0-.078 1.068c-.286-.11-.574-.208-.864-.292-1.559-.45-2.964-.669-4.297-.669-1.64 0-3.186.256-4.597.76a12.678 12.678 0 0 0-3.275 1.727 19.514 19.514 0 0 0-4.384-1.797c-3.1-.851-6.214-.914-9.26-.188a14.03 14.03 0 0 0-3.139 1.155 7.683 7.683 0 0 0-.093-.348c-.504-1.737-1.38-3.245-2.606-4.483-1.159-1.17-2.589-2.073-4.25-2.684-1.532-.562-3.235-.847-5.063-.847h-.926l3.122-3.016-8.818-1.267L12.76.655l-3.942 7.92L0 9.842l6.382 6.166-1.505 8.705 2.195-1.144-3.518 24.945h16.24c3.953 0 7.214-.907 9.69-2.698.21-.151.416-.31.618-.475a9.515 9.515 0 0 0 3.237 2.549c1.358.661 2.868.997 4.487.997.866 0 1.758-.125 2.664-.373h11.188l.085-.612.173.069c.901.35 1.843.598 2.797.737a17.95 17.95 0 0 0 2.554.179c.592 0 1.18-.054 1.767-.127l.793 5.24h34.16l-1.64-2.323c.404-.346.737-.858.856-1.71.116-.957-.219-1.56-.52-1.897-.455-.508-1.135-.776-1.97-.776h-.042c.169-.088.345-.153.51-.25 1.131-.653 2.208-1.51 3.2-2.548 1.044-1.09 1.935-2.434 2.65-3.992l2.362-5.15-5.109-1.187" mask="url(#b)"/>
            <path fill="#000105" d="M77.434 48.514l.204-1.433c.765.462 1.591.84 2.474 1.126 1.382.45 2.828.68 4.299.68 1.02 0 2.11-.138 3.243-.41a13.279 13.279 0 0 0 3.548-1.432c1.13-.654 2.207-1.51 3.2-2.549 1.043-1.09 1.934-2.434 2.649-3.992l2.362-5.15-5.109-1.187 4.63-1.364-.572-3.965c-.245-1.708-.78-3.201-1.589-4.44a10.257 10.257 0 0 0-2.892-2.945 10.65 10.65 0 0 0-3.53-1.528 13.827 13.827 0 0 0-3.085-.362c-1.374 0-2.772.183-4.156.544-.438.114-.867.247-1.287.398.19-1.683-.078-3.212-.802-4.551a7.34 7.34 0 0 0-3.114-3.067c-1.146-.597-2.422-.913-3.798-.94a8.924 8.924 0 0 0-3.851.79 9.034 9.034 0 0 0-3.14 2.364c-1.041 1.21-1.677 2.68-1.887 4.355a8.753 8.753 0 0 0-.078 1.068c-.286-.11-.574-.208-.864-.29-1.559-.451-2.964-.671-4.297-.671-1.64 0-3.186.256-4.597.76a12.678 12.678 0 0 0-3.275 1.727 19.514 19.514 0 0 0-4.384-1.797c-3.1-.851-6.214-.914-9.26-.188-1.103.264-2.154.65-3.138 1.155a9.08 9.08 0 0 0-.094-.348c-.504-1.737-1.38-3.245-2.606-4.483-1.159-1.17-2.589-2.073-4.25-2.684-1.532-.562-3.235-.847-5.063-.847h-.926l3.122-3.016-8.818-1.267L12.76.655l-3.942 7.92L0 9.842l6.382 6.166-1.505 8.705 2.195-1.144-3.518 24.945h16.24c3.953 0 7.214-.907 9.69-2.698.21-.151.416-.31.618-.475a9.515 9.515 0 0 0 3.237 2.549c1.358.661 2.868.997 4.487.997.866 0 1.758-.125 2.664-.373h11.188l.085-.612.173.069c.901.35 1.843.598 2.797.737a17.95 17.95 0 0 0 2.554.179 14.381 14.381 0 0 0 4.386-.685l-.044.312h15.805" mask="url(#b)"/>
        </g>
        <path fill="#EEB844" d="M107.906 42.967l.546.786c.36.52.784.991 1.261 1.403a9.125 9.125 0 0 0 3.16 1.758c1.136.371 2.326.559 3.538.559.826 0 1.725-.115 2.67-.342.987-.237 1.961-.631 2.895-1.172.931-.538 1.826-1.253 2.659-2.124.857-.896 1.597-2.015 2.2-3.33l1.134-2.473-9.706-2.252.116-.795 9.849-2.903-.275-1.903c-.196-1.358-.607-2.525-1.223-3.467a7.844 7.844 0 0 0-2.208-2.257 8.2 8.2 0 0 0-2.72-1.179 11.4 11.4 0 0 0-2.536-.299c-1.164 0-2.355.156-3.538.464-1.23.32-2.374.819-3.4 1.481-.453.293-.89.637-1.332 1.053l-.778.729.457-3.216.034-.06a5.888 5.888 0 0 0 .68-2.077c.16-1.232-.012-2.33-.512-3.255a4.961 4.961 0 0 0-2.1-2.072c-.81-.421-1.722-.644-2.71-.664-.98-.019-1.92.175-2.798.573a6.617 6.617 0 0 0-2.298 1.735c-.727.845-1.174 1.89-1.326 3.104-.114.844-.06 1.628.16 2.334l.024.08-.36 2.537-.512-.4c-1.083-.845-2.21-1.442-3.35-1.773-1.333-.385-2.516-.573-3.615-.573-1.357 0-2.625.207-3.77.617-1.142.41-2.15.969-2.997 1.664a8.95 8.95 0 0 0-.615.555l-.206.202-1.225-.717a17.042 17.042 0 0 0-4.093-1.719c-2.697-.74-5.401-.797-8.04-.167a11.419 11.419 0 0 0-3.556 1.51 9.395 9.395 0 0 0-1.67 1.383l-.75.779.107-1.072c.124-1.252.032-2.42-.273-3.472-.39-1.348-1.065-2.512-2.001-3.459-.908-.916-2.038-1.626-3.36-2.111-1.26-.463-2.68-.698-4.218-.698H42.701L38.353 47.1h13.44c3.428 0 6.206-.752 8.256-2.234a11.216 11.216 0 0 0 2.175-2.073l.4-.498.24.59c.269.659.598 1.247.979 1.745a7.089 7.089 0 0 0 2.57 2.093c1.02.497 2.17.75 3.413.75.957 0 1.976-.21 3.026-.623l.471-.193.223.443h8.008l.302-2.182.607.477c.064.05.127.101.192.148.689.492 1.418.89 2.168 1.18.73.284 1.492.484 2.262.597.704.101 1.445.153 2.202.153 1.137 0 2.268-.162 3.361-.483a10.01 10.01 0 0 0 3.1-1.516c.06-.043.114-.09.17-.137.04-.034.082-.069.124-.102l.737-.588-.349 2.453h10.889l.587-4.133zm8.505 5.248c-1.291 0-2.56-.2-3.773-.595a9.868 9.868 0 0 1-3.417-1.904 8.126 8.126 0 0 1-.83-.828l-.421 2.955H95.569l.21-1.485a10.861 10.861 0 0 1-2.918 1.345c-1.162.34-2.365.512-3.574.512-.792 0-1.57-.054-2.311-.16a11.2 11.2 0 0 1-2.426-.64 10.563 10.563 0 0 1-2.128-1.127l-.215 1.555h-9.123l-.12-.238c-1.082.405-2.136.61-3.138.61-1.359 0-2.619-.277-3.744-.825a7.833 7.833 0 0 1-2.837-2.312 8.023 8.023 0 0 1-.827-1.358c-.58.654-1.227 1.24-1.928 1.746-2.181 1.577-5.107 2.377-8.696 2.377H37.492l4.557-32.313h13.276c1.628 0 3.134.25 4.479.743 1.425.523 2.648 1.293 3.633 2.288 1.025 1.036 1.761 2.306 2.187 3.773.252.869.37 1.805.354 2.794a9.893 9.893 0 0 1 1.103-.828 12.184 12.184 0 0 1 3.79-1.61c2.764-.66 5.595-.6 8.415.174 1.513.416 2.95 1.02 4.274 1.794l.73.428c.15-.14.303-.275.457-.401.915-.75 1.998-1.351 3.22-1.79 1.228-.438 2.581-.66 4.025-.66 1.17 0 2.422.197 3.826.602 1.05.305 2.087.816 3.088 1.521l.16-1.114c-.232-.788-.287-1.651-.164-2.567.17-1.358.675-2.533 1.498-3.49a7.372 7.372 0 0 1 2.558-1.93 7.22 7.22 0 0 1 3.123-.64c1.106.023 2.13.274 3.043.75a5.687 5.687 0 0 1 2.413 2.378c.575 1.065.775 2.312.595 3.703a6.638 6.638 0 0 1-.735 2.279l-.149 1.05c.22-.172.444-.33.672-.477a12.392 12.392 0 0 1 3.617-1.577c1.245-.325 2.5-.489 3.73-.489.873 0 1.784.108 2.704.32a8.943 8.943 0 0 1 2.97 1.285 8.59 8.59 0 0 1 2.418 2.468c.675 1.033 1.124 2.301 1.336 3.767l.365 2.537-9.323 2.749 9.292 2.156-1.513 3.297c-.637 1.389-1.423 2.578-2.337 3.533-.883.922-1.833 1.681-2.825 2.255-.998.577-2.039.998-3.096 1.252-1.004.24-1.962.362-2.847.362z"/>
        <path fill="#FFF" d="M56.696 26.471c-.088.597-.375 1.137-.864 1.621-.488.484-1.145.726-1.972.726h-3.907l.676-4.694h3.908c.85 0 1.446.243 1.784.727.338.484.463 1.024.375 1.62zm-.864 9.853c-.087.683-.426 1.303-1.014 1.863-.589.558-1.384.837-2.386.837h-3.907l.752-5.4h3.907c1 0 1.715.279 2.141.837.426.559.595 1.18.507 1.863zm5.466-15.682c-.676-.683-1.521-1.21-2.535-1.583-1.015-.373-2.16-.559-3.438-.559h-10.67l-3.718 26.373h10.857c2.955 0 5.265-.602 6.931-1.807 1.665-1.204 2.824-2.874 3.475-5.01.15-.496.257-1.067.32-1.713a5.664 5.664 0 0 0-.17-1.975 5.78 5.78 0 0 0-.938-1.936c-.451-.621-1.103-1.156-1.954-1.603a5.373 5.373 0 0 0 1.371-.912c.388-.36.726-.739 1.014-1.136a5.75 5.75 0 0 0 .677-1.192c.162-.397.268-.745.32-1.043.224-1.266.193-2.396-.094-3.39-.289-.992-.771-1.83-1.448-2.514zM74.146 39.583c-.45.224-.976.335-1.577.335-.251 0-.495-.037-.732-.111a1.552 1.552 0 0 1-.602-.336 1.425 1.425 0 0 1-.376-.614c-.088-.261-.106-.578-.056-.95l.789-5.55c.1-.596.395-1.074.883-1.434a2.743 2.743 0 0 1 1.671-.54c.451 0 .865.087 1.24.26l-1.24 8.94zm.601-14.378c-1.076 0-2.134.124-3.174.372a9.134 9.134 0 0 0-2.855 1.211c-.864.559-1.597 1.298-2.198 2.217s-.99 2.048-1.165 3.39l-.826 5.996c-.125.993-.088 1.906.113 2.738.2.832.531 1.552.996 2.16a4.836 4.836 0 0 0 1.765 1.434c.714.348 1.522.522 2.423.522.677 0 1.409-.155 2.198-.466.79-.31 1.522-.75 2.197-1.322l.715 1.416h4.658l2.442-17.656a14.717 14.717 0 0 0-3.55-1.49 14.053 14.053 0 0 0-3.739-.522zM92.123 30.736c.714.037 1.622.342 2.724.913l3.42-3.985c-1.079-.994-2.174-1.651-3.288-1.974-1.116-.324-2.111-.485-2.987-.485-1.103 0-2.104.161-3.005.485-.902.323-1.679.75-2.33 1.284a6.416 6.416 0 0 0-1.578 1.9 6.433 6.433 0 0 0-.751 2.328c-.1.72-.075 1.44.075 2.16.15.72.444 1.392.883 2.012.438.62 1.026 1.16 1.766 1.62.738.46 1.659.789 2.76.987.351.026.615.125.79.298a.897.897 0 0 1 .282.596.845.845 0 0 1-.226.615c-.163.186-.407.292-.732.317-.652.05-1.34-.05-2.067-.299a6.282 6.282 0 0 1-1.991-1.117l-3.419 3.837c.476.62.983 1.124 1.522 1.508.538.385 1.095.69 1.672.913a8.064 8.064 0 0 0 1.765.465c.602.087 1.227.13 1.879.13.926 0 1.834-.13 2.724-.39a7.727 7.727 0 0 0 2.404-1.174 6.778 6.778 0 0 0 1.804-1.992c.487-.807.807-1.757.957-2.85.15-.993.095-1.85-.169-2.57-.262-.72-.645-1.316-1.145-1.788a5.81 5.81 0 0 0-1.71-1.117 9.568 9.568 0 0 0-1.898-.597 2.402 2.402 0 0 1-.582-.167 2.423 2.423 0 0 1-.563-.317 1.144 1.144 0 0 1-.357-.428c-.075-.162-.063-.354.037-.578.175-.396.62-.577 1.334-.54M107.733 17.998c-.502-.262-1.07-.398-1.71-.41a4.157 4.157 0 0 0-1.821.372 4.369 4.369 0 0 0-1.523 1.155c-.438.509-.708 1.161-.807 1.955-.1.746-.007 1.36.282 1.844.287.484.689.845 1.202 1.08a3.849 3.849 0 0 0 1.71.336 4.974 4.974 0 0 0 1.803-.373 3.996 3.996 0 0 0 1.502-1.08c.426-.484.689-1.086.79-1.807.099-.769.012-1.409-.264-1.918a2.737 2.737 0 0 0-1.164-1.154M99.017 44.873h6.35l2.742-19.296h-6.35l-2.742 19.296M118.421 39.583c-.438.248-.87.372-1.296.372-.426 0-.802-.142-1.127-.428-.326-.285-.45-.689-.376-1.21l.902-6.184c.075-.546.313-.955.713-1.229.401-.273.827-.41 1.278-.41.4 0 .764.13 1.09.392.324.26.513.676.563 1.247l5.56-1.638c-.15-1.043-.445-1.9-.882-2.571a5.608 5.608 0 0 0-1.578-1.62 5.936 5.936 0 0 0-1.972-.857 9.065 9.065 0 0 0-2.029-.242c-.978 0-1.967.13-2.969.392a9.34 9.34 0 0 0-2.742 1.191 7.382 7.382 0 0 0-2.104 2.067c-.576.845-.952 1.863-1.127 3.055l-.902 6.295c-.175 1.167-.094 2.192.245 3.073a5.4 5.4 0 0 0 1.521 2.198 6.84 6.84 0 0 0 2.386 1.322c.913.298 1.86.447 2.837.447.65 0 1.364-.093 2.14-.28a8.587 8.587 0 0 0 2.293-.93c.75-.435 1.47-1.012 2.16-1.733.688-.72 1.282-1.626 1.784-2.72l-5.297-1.228c-.276.572-.633.98-1.07 1.229"/>
        <path fill="#000" d="M53.896 12.01l-6.312-.907-2.823-5.671-2.823 5.671-6.314.908 4.57 4.413-1.079 6.234 5.646-2.943 5.645 2.943-1.078-6.234 4.568-4.413"/>
        <path fill="#EEB844" d="M44.76 8.12l2.027 4.071 4.53.65-3.278 3.167.774 4.475-4.052-2.112-4.053 2.112.774-4.475-3.278-3.166 4.53-.65 2.027-4.072M97.038 49.14h1.322l-2.164 5.015H95.01l-.257-1.388-.015-1.148h-.021l-.357 1.14-.593 1.396h-1.186l-.757-5.014h1.329l.257 2.4-.014 1.063h.028l.272-1.056.814-1.756h.971l.272 1.764.014 1.048h.021l.293-1.048.957-2.415M100.163 51.47c.393 0 .622-.29.658-.58.035-.306-.115-.567-.493-.567h-.75l-.165 1.148h.75zm-.678 1.091h-.229l-.221 1.594h-1.293l.707-5.014h2.022c1.042 0 1.785.552 1.642 1.728-.128.927-.528 1.238-1.221 1.565l1.214 1.72h-1.593l-1.028-1.593z"/>
        <path fill="#EEB844" d="M104.915 52.023l-.15-1.466h-.05l-.557 1.466h.757zm1.707 2.132h-1.371l-.192-1.006h-1.35l-.45 1.006h-1.372l2.471-5.014h1.164l1.1 5.014zM109.34 51.563c.4.007.628-.313.67-.653.044-.332-.12-.587-.491-.587h-.744l-.179 1.24h.744zm-1.68-2.422h2.022c1.237 0 1.7.898 1.6 1.805-.107.95-.814 1.743-2.036 1.743h-.807l-.207 1.466h-1.278l.707-5.014zM113.763 51.563c.4.007.629-.313.672-.653.043-.332-.122-.587-.493-.587h-.743l-.178 1.24h.742zm-1.678-2.422h2.021c1.236 0 1.7.898 1.6 1.805-.107.95-.814 1.743-2.035 1.743h-.808l-.207 1.466h-1.278l.707-5.014zM117.522 51.081h2.05l-.156 1.125h-2.05l-.107.752h2.228l-.165 1.197h-3.52l.706-5.014h3.521l-.171 1.196h-2.228l-.108.744M122.426 51.47a.65.65 0 0 0 .657-.58c.035-.306-.115-.567-.494-.567h-.749l-.165 1.148h.75zm-.68 1.091h-.228l-.22 1.594h-1.294l.707-5.014h2.021c1.043 0 1.786.552 1.644 1.728-.129.927-.529 1.238-1.222 1.565l1.214 1.72h-1.592l-1.03-1.593z"/>
    </g>
</svg>
