<svg xmlns="http://www.w3.org/2000/svg" width="160" height="160" viewBox="0 0 160 160">
    <g fill="none" fill-rule="evenodd" stroke="#7A7A7A" stroke-width="3">
        <ellipse cx="98" cy="80.5" rx="21" ry="40.5"/>
        <path stroke-linecap="round" stroke-linejoin="round" d="M84.954 99.165C86.887 93.87 88 87.651 88 81c0-6.506-1.065-12.597-2.92-17.816"/>
        <ellipse cx="97.5" cy="80.5" rx="34.5" ry="55.5"/>
        <path stroke-linecap="round" stroke-linejoin="round" d="M81.528 25H63.5C44.446 25 29 49.848 29 80.5S44.446 136 63.5 136h18.028"/>
        <path stroke-linecap="round" stroke-linejoin="round" d="M36 92l5 6.5 5-6 5 6 5-6M41 107l5 6.5 5-6 5 6 5-6M50 123l5 4.5 5-4 5 4 5-4M37 82.5l5-6.5 5 6 5-6 5 6M37 68l5-6.5 5 6 5-6 5 6M42 53.5l5-5.5 5 5 5-5 5 5M49 38.5l5-4.5 5 4 5-4 5 4"/>
    </g>
</svg>