<svg xmlns="http://www.w3.org/2000/svg" width="160" height="160" viewBox="0 0 160 160">
    <g fill="none" fill-rule="evenodd" stroke="#7A7A7A" stroke-width="3">
        <path d="M95.753 77.5h15.494a5 5 0 0 1 4.995 5.22l-1.319 30a5 5 0 0 1-4.995 4.78H97.072a5 5 0 0 1-4.995-4.78l-1.32-30a5 5 0 0 1 4.996-5.22z"/>
        <path stroke-linecap="round" stroke-linejoin="round" d="M67 84h17.599l-.167-3.296a9 9 0 0 1 8.989-9.454h20.158a9 9 0 0 1 8.989 9.454L122.4 84H154m0 15l-32.81 9-.364 7.204a9 9 0 0 1-8.988 8.546H95.162a9 9 0 0 1-8.988-8.546L85.81 108 62 99"/>
        <circle cx="103.5" cy="106.5" r="3.5"/>
        <circle cx="39" cy="76" r="27"/>
        <path stroke-linecap="round" stroke-linejoin="round" d="M12.93 53.842a85.876 85.876 0 0 0-9.46 3.545M154 63.339l-72.656-2s-10.273-5.21-15.812-7.031"/>
        <path d="M63.995 67.683A89.518 89.518 0 0 0 38.5 64c-8.622 0-16.96 1.22-24.849 3.495"/>
        <circle cx="38.5" cy="77.5" r="5.5"/>
        <path d="M33.95 102.351c-.745-12.373-9.823-22.499-21.696-24.84M65.92 77.477c-11.847 2.256-20.95 12.253-21.847 24.528"/>
        <path stroke-linecap="round" stroke-linejoin="round" d="M97 96h13M97 90h13M97 84h13M130 90h13M130 98l13-2"/>
    </g>
</svg>