<svg xmlns="http://www.w3.org/2000/svg" width="160" height="160" viewBox="0 0 160 160">
    <g fill="none" fill-rule="evenodd" stroke="#7A7A7A" stroke-linecap="round" stroke-linejoin="round" stroke-width="3">
        <path d="M26.713 77.832l.431-.832 13.173-30.198A13 13 0 0 1 52.233 39h56.534a13 13 0 0 1 11.916 7.802L133.856 77l.43.832a24 24 0 0 1 2.34 15.123l-3.553 20.576a9 9 0 0 1-8.868 7.469h-87.41a9 9 0 0 1-8.868-7.469l-3.553-20.576a24 24 0 0 1 2.34-15.123z"/>
        <path d="M33 63h-5.699c-2.797 0-5.525.874-7.801 2.5a2.315 2.315 0 0 0 .514 4.044L29 73M39 78h2.054c4.301 0 8.279 2.285 10.446 6l.868 1.488A3 3 0 0 1 49.777 90H44M122 78h-2.054a12.094 12.094 0 0 0-10.446 6l-.868 1.488A3 3 0 0 0 111.223 90H117M51 111h-6.261a7 7 0 0 1-6.864-5.627L37 101h9M67 92h27M61 85h39M128 63h5.699c2.797 0 5.525.874 7.801 2.5a2.315 2.315 0 0 1-.514 4.044L132 73M110 111h6.261a7 7 0 0 0 6.864-5.627L124 101h-9"/>
    </g>
</svg>