<svg xmlns="http://www.w3.org/2000/svg" width="160" height="160" viewBox="0 0 160 160">
    <g fill="none" fill-rule="evenodd" stroke="#7A7A7A" stroke-width="3">
        <path stroke-linecap="round" stroke-linejoin="round" d="M41 108v-9.28c0-4.622.12-8.542.427-12.208a88.435 88.435 0 0 1 1.538-10.68C43.705 72.23 44.695 68.434 46 64a23.682 23.682 0 0 1 22.72-17h22.56A23.682 23.682 0 0 1 114 64c1.304 4.434 2.294 8.23 3.035 11.832a88.435 88.435 0 0 1 1.538 10.68c.306 3.666.427 7.586.427 12.208V108"/>
        <path d="M40.44 116.496c3.752 1.67 7.845 2.504 12.277 2.504 13.285 0 15.25-4 27.5-4s16.285 4 27.5 4c4.054 0 8.114-.98 12.18-2.94a6 6 0 0 1 8.552 6.2l-.232 1.74c-1.145 8.587-8.47 15-17.132 15H49.35c-8.663 0-15.988-6.413-17.133-15l-.164-1.23a6 6 0 0 1 8.387-6.274z"/>
        <path stroke-linecap="round" stroke-linejoin="round" d="M59 107.5V96.19c0-2.729.095-5.37.291-7.976.196-2.606.492-5.175.895-7.757.404-2.582.913-5.176 1.535-7.832A15.056 15.056 0 0 1 76.38 61h7.68a15.056 15.056 0 0 1 14.66 11.625c.621 2.656 1.13 5.25 1.534 7.832.403 2.582.7 5.15.895 7.757.196 2.605.291 5.247.291 7.975V107.5"/>
        <path d="M70 22h21a9 9 0 0 1 9 9v6a3 3 0 0 1-3 3H64a3 3 0 0 1-3-3v-6a9 9 0 0 1 9-9z"/>
        <path stroke-linecap="round" stroke-linejoin="round" d="M71 122v10.5M53 126v6.5M89 122v10.5M107 126v6.5"/>
    </g>
</svg>