<svg xmlns="http://www.w3.org/2000/svg" width="160" height="160" viewBox="0 0 160 160">
    <g fill="none" fill-rule="evenodd" stroke="#7A7A7A" stroke-linecap="round" stroke-linejoin="round" stroke-width="3">
        <path d="M45.5 33.67v-.42A6.25 6.25 0 0 1 51.75 27H88a4 4 0 0 1 4 4v58c0 11.046-8.954 20-20 20H23a4 4 0 0 1-4-4V60.33a10 10 0 0 1 5.074-8.702l16.352-9.256A10 10 0 0 0 45.5 33.67z"/>
        <path d="M50.144 47.056l29.85-.05a4 4 0 0 1 4.006 4V88c0 7.18-5.82 13-13 13H27V60.275a2 2 0 0 1 .982-1.722L45.071 48.45a10 10 0 0 1 5.073-1.393zM37.5 91.5V65.995M49.5 91.5V57.995M61.5 91.5V57.995M73.5 91.5V57.995"/>
        <g>
            <path d="M69.72 117.335C72.054 125.791 79.802 132 89 132h49a4 4 0 0 0 4-4V83.33a10 10 0 0 0-5.074-8.702l-16.352-9.256a10 10 0 0 1-5.074-8.702v-.42a6.25 6.25 0 0 0-6.25-6.25H99"/>
            <path d="M78.313 116.7c2.112 4.323 6.552 7.3 11.687 7.3h44V83.275a2 2 0 0 0-.982-1.722L115.929 71.45a10 10 0 0 0-5.073-1.393c-6.473-.01-8.12-.018-11.356-.024M123.5 114.5V88.995M111.5 114.5V80.995M99.5 114.5V80.995M87.5 114.5v-3.25"/>
        </g>
    </g>
</svg>