<svg xmlns="http://www.w3.org/2000/svg" width="120" height="120" viewBox="0 0 120 120">
    <g fill="none" fill-rule="evenodd" stroke-linecap="round" stroke-linejoin="round" stroke-width="3">
        <path stroke="#FFF" d="M11.25 24l6.214-.799A75 75 0 0 0 53.532 8.334L60 3.375l6.468 4.959A75 75 0 0 0 102.536 23.2l6.214.799v32.926c0 28.726-20.502 53.359-48.75 58.574-28.248-5.215-48.75-29.848-48.75-58.574V24z"/>
        <path stroke="#FFF" d="M60 13.875C50.302 24.33 37.348 30.75 21.138 33.135v23.791M60 103.875c21.02 0 39-23.953 39-46.875V32.25"/>
        <path stroke="#3D95EE" d="M60 87.75c14.497 0 26.25-11.753 26.25-26.25S74.497 35.25 60 35.25 33.75 47.003 33.75 61.5 45.503 87.75 60 87.75z"/>
        <path stroke="#3D95EE" d="M69.564 70.314L60 61.5V45.375"/>
    </g>
</svg>