<svg xmlns="http://www.w3.org/2000/svg" width="160" height="160" viewBox="0 0 160 160">
    <g fill="none" fill-rule="evenodd">
        <path fill="#FFF" fill-rule="nonzero" d="M114.39 37.96a21.83 21.83 0 0 0-9.92-5.692 1.42 1.42 0 0 0-.715 2.746 18.99 18.99 0 0 1 8.628 4.952 18.97 18.97 0 0 1 3.062 22.872L89.507 36.901a18.94 18.94 0 0 1 8.424-2.479 1.419 1.419 0 0 0-.15-2.834 21.766 21.766 0 0 0-10.428 3.296 3.308 3.308 0 0 0-4.054.483l-2.404 2.404a3.284 3.284 0 0 0-.968 2.337c0 .615.17 1.201.482 1.713a21.759 21.759 0 0 0-3.252 13.5L40.583 99.824a1.419 1.419 0 0 0 .093 1.904l3.872 3.873-4.87 7.962a5.841 5.841 0 0 0-.06 5.987c1.07 1.843 2.967 2.905 5.074 2.842a5.534 5.534 0 0 0 2.056-.458c.754-.329 1.46-.842 2.161-1.569.591-.614 1.103-1.291 1.598-1.946.997-1.32 1.859-2.461 3.067-2.793 1.505-.413 3.15.627 4.188 1.737.701.75 1.294 1.617 1.922 2.535.56.819 1.139 1.665 1.82 2.458 3.343 3.887 7.54 6.058 11.548 6.058.645 0 1.285-.056 1.916-.17 5.834-1.059 11.296-5.334 16.116-9.107 4.349-3.404 8.455-6.62 11.08-5.948 1.013.26 1.352.808 1.518 1.198.993 2.322-1.019 7.423-2.52 10.092a1.419 1.419 0 1 0 2.472 1.393c.468-.83 4.52-8.239 2.658-12.598-.613-1.438-1.798-2.418-3.425-2.834-3.976-1.017-8.404 2.45-13.532 6.463-4.561 3.57-9.73 7.615-14.874 8.548-3.55.644-7.588-1.205-10.805-4.945-.58-.674-1.09-1.42-1.63-2.21-.66-.965-1.343-1.963-2.191-2.87-1.605-1.717-4.29-3.284-7.013-2.536-2.139.587-3.436 2.304-4.58 3.819-.465.615-.904 1.197-1.377 1.688-.437.454-.846.76-1.251.936-.32.14-.65.213-1.007.224-1.05.03-1.998-.504-2.536-1.431a2.968 2.968 0 0 1 .027-3.082l4.514-7.378 4.007 4.008a1.416 1.416 0 0 0 1.905.093l4.978-4.092.048-.04 17.152-14.097a1.419 1.419 0 1 0-1.801-2.192l-16.179 13.297-9.015-9.016 30.097-36.62a21.838 21.838 0 0 0 5.683 9.855 21.832 21.832 0 0 0 9.856 5.683L77.56 87.516a1.419 1.419 0 1 0 1.802 2.192L97.027 75.19a21.753 21.753 0 0 0 13.498-3.253 3.302 3.302 0 0 0 4.052-.484l2.404-2.404a3.308 3.308 0 0 0 .486-4.05c5.389-8.586 4.17-19.792-3.078-27.04zm-59.87 68.492l-2.804 2.304-8.124-8.125 2.304-2.803 8.623 8.624zm60.454-39.41l-2.404 2.404a.468.468 0 0 1-.66 0L93.701 51.238a1.419 1.419 0 1 0-2.006 2.007l16.672 16.672a18.974 18.974 0 0 1-22.875-3.064c-6.125-6.126-7.303-15.502-3.07-22.88l5.063 5.063a1.419 1.419 0 1 0 2.007-2.007l-6.59-6.59a.465.465 0 0 1 0-.661l2.403-2.404a.468.468 0 0 1 .661 0l29.007 29.007a.468.468 0 0 1 0 .66zm-31.106 6.007l-4.569-4.57a1.419 1.419 0 0 0-2.006 0L66.542 79.232a1.418 1.418 0 0 0 0 2.007l4.568 4.568a1.415 1.415 0 0 0 2.007 0l5.678-5.678 5.073-5.073a1.419 1.419 0 0 0 0-2.006zm-11.754 9.748l-2.563-2.562 3.672-3.672 2.563 2.562-3.672 3.672zm5.678-5.679l-2.562-2.562 3.066-3.066 2.562 2.562-3.066 3.066z" opacity=".1"/>
        <path stroke="#7A7A7A" stroke-linecap="round" stroke-linejoin="round" stroke-width="3" d="M80.47 45.46A19.943 19.943 0 0 0 79 53c0 11.046 8.954 20 20 20 2.74 0 5.35-.55 7.727-1.547M117.84 59.73A19.966 19.966 0 0 0 119 53c0-11.046-8.954-20-20-20a19.97 19.97 0 0 0-6.6 1.114"/>
        <path stroke="#7A7A7A" stroke-linecap="round" stroke-linejoin="round" stroke-width="3" d="M93 77l-42 34-10-10 34-42M48.5 98.5l8 8"/>
        <path stroke="#7A7A7A" stroke-linecap="round" stroke-linejoin="round" stroke-width="3" d="M42 109c-4 5-4.167 8.667-.5 11 5.5 3.5 8-5.5 16-4s8 10.5 18 11 22-17.5 29.5-14.5c5 2 4.667 7.667-1 17M77.021 68l6.99 6.99L71.99 87.01 65 80.02zM74.5 76l4 4"/>
        <rect width="9" height="48" x="95" y="29" stroke="#7A7A7A" stroke-width="3" rx="2" transform="rotate(-45 99.5 53)"/>
    </g>
</svg>
