<svg xmlns="http://www.w3.org/2000/svg" xmlns:xlink="http://www.w3.org/1999/xlink" width="163" height="57" viewBox="0 0 163 57">
    <defs>
        <path id="a" d="M.048.68h88.43v56.272H.048z"/>
    </defs>
    <g fill="none" fill-rule="evenodd">
        <g transform="translate(37)">
            <mask id="b" fill="#fff">
                <use xlink:href="#a"/>
            </mask>
            <path fill="#000105" d="M87.628 23.442l-.018-.043a12.21 12.21 0 0 0-3.532-4.762c-1.449-1.188-3.16-2.077-5.085-2.64-3.48-1.021-7.258-1.028-10.924-.024a18.01 18.01 0 0 0-5.25 2.384 15.868 15.868 0 0 0-2.447 2.015c-.32-.405-.669-.787-1.042-1.14-.44-.419-.916-.804-1.423-1.155l6.946-6.742-10.178-1.47L50.124.68l-4.55 9.187-4.241.613-4.24-.613L32.54.679l-4.55 9.187-4.355.628-4.356-.628L14.73.679l-4.55 9.187L0 11.336l7.367 7.15-1.739 10.097 3.06-1.602-3.557 25.347h16.58l1.116-7.94h.179c2.228 0 4.293-.36 6.137-1.069.395-.152.78-.317 1.154-.495l-1.334 9.504H45.63l.206-1.486v-.002l.956 1.488h4.514L52.007 57h7.059l.044-.305.195.305h19.577l.041-.304.196.304h3.29l-1.458-2.077c.36-.31.657-.767.76-1.529.105-.857-.193-1.397-.462-1.698-.405-.454-1.01-.694-1.753-.694H77.9a17.198 17.198 0 0 0 2.586-1.434 15.48 15.48 0 0 0 4.2-4.211c1.18-1.752 1.948-3.79 2.285-6.062l1.345-9.269c.36-2.424.124-4.648-.687-6.584" mask="url(#b)"/>
            <path fill="#000105" d="M87.61 23.4a12.202 12.202 0 0 0-3.532-4.762c-1.449-1.189-3.16-2.078-5.085-2.642-3.48-1.02-7.258-1.027-10.924-.023a18.01 18.01 0 0 0-5.25 2.384 15.868 15.868 0 0 0-2.447 2.015c-.32-.406-.669-.787-1.042-1.14-.44-.419-.916-.804-1.423-1.155l6.946-6.742-10.178-1.47L50.124.68l-4.55 9.187-4.241.613-4.24-.613L32.54.679l-4.55 9.187-4.355.628-4.356-.628L14.73.679l-4.55 9.187L0 11.336l7.367 7.15-1.739 10.097 3.06-1.602-3.557 25.347h16.58l1.116-7.94h.179c2.228 0 4.293-.36 6.137-1.069.395-.152.78-.317 1.154-.495l-1.334 9.504H45.63l.206-1.486v-.002l.956 1.488h18.94a19.39 19.39 0 0 0 3.861.384c1.91 0 3.797-.25 5.613-.745a17.662 17.662 0 0 0 5.28-2.4 15.48 15.48 0 0 0 4.2-4.21c1.18-1.752 1.948-3.79 2.285-6.062l1.345-9.269c.36-2.424.124-4.648-.687-6.584l-.018-.043" mask="url(#b)"/>
        </g>
        <path fill="#EEB844" d="M97.934 47.72l1.452.8c.777.429 1.614.776 2.488 1.035 3.06.907 6.526.871 9.675.014a15.177 15.177 0 0 0 4.535-2.059 13.01 13.01 0 0 0 3.529-3.537c.972-1.443 1.606-3.137 1.887-5.035l1.346-9.274c.292-1.97.112-3.756-.537-5.304l.353-.15-.354.148a9.74 9.74 0 0 0-2.816-3.802c-1.188-.974-2.602-1.706-4.203-2.176-3.036-.888-6.34-.892-9.558-.01a15.512 15.512 0 0 0-4.522 2.052 13.408 13.408 0 0 0-3.575 3.515c-.062.088-.12.18-.178.27l-.459.718-.274-.703c-.487-1.25-1.198-2.323-2.115-3.191-1.052-1-2.342-1.755-3.831-2.245-1.397-.457-2.94-.69-4.591-.69h-12.9l-.837 5.97-.558-.964a9.972 9.972 0 0 0-.696-1.05l-.022-.03c-.907-1.177-2.11-2.136-3.574-2.85-1.467-.713-3.232-1.076-5.245-1.076h-12.9L45 49.843H56.54l1.117-7.94h2.348c1.92 0 3.682-.304 5.237-.903 1.566-.603 2.936-1.441 4.07-2.493.163-.152.32-.308.473-.467l.821-.85-1.776 12.653h11.624l.833-6.023 3.869 6.023h14.268l-1.491-2.124zm8.658 3.27c-1.702 0-3.363-.236-4.937-.702a13.596 13.596 0 0 1-1.301-.457l.545.776H84.737l-2.973-4.628-.64 4.628H67.95l1.58-11.266c-1.142.99-2.49 1.788-4.008 2.373-1.645.632-3.5.953-5.515.953h-1.681l-1.116 7.94H44.117l4.67-33.276h13.567c2.131 0 4.009.389 5.583 1.154 1.585.772 2.886 1.816 3.868 3.102l.023.03.159.216.632-4.502h13.567c1.732 0 3.357.246 4.83.729 1.599.525 2.985 1.338 4.122 2.416a9.33 9.33 0 0 1 2.017 2.81 14.19 14.19 0 0 1 3.627-3.5 16.26 16.26 0 0 1 4.746-2.153c3.355-.92 6.805-.915 9.977.014 1.701.498 3.207 1.279 4.475 2.319a10.502 10.502 0 0 1 3.037 4.098l.005.014c.699 1.666.897 3.587.584 5.697l-1.346 9.274c-.298 2.012-.974 3.811-2.01 5.35a13.778 13.778 0 0 1-3.734 3.745 15.95 15.95 0 0 1-4.766 2.163 19.687 19.687 0 0 1-5.158.683z"/>
        <path fill="#FFF" d="M64.125 29.98a4.94 4.94 0 0 1-.346 1.342 3.492 3.492 0 0 1-1.83 1.898c-.422.193-.904.289-1.443.289h-4.004l.962-6.713h4.005c1 0 1.726.307 2.175.921.449.614.61 1.368.481 2.263zm5.237-6.54c-.694-.908-1.618-1.643-2.773-2.206-1.155-.562-2.566-.844-4.235-.844H51.458l-3.811 27.157h6.892l1.116-7.94h4.35c1.643 0 3.113-.248 4.41-.747 1.295-.499 2.406-1.177 3.329-2.033a9.636 9.636 0 0 0 2.195-3.012c.54-1.15.886-2.364 1.04-3.644a11.283 11.283 0 0 0-.193-3.605 7.839 7.839 0 0 0-1.424-3.126zM88.072 29.865c-.102.793-.448 1.515-1.038 2.167-.591.652-1.425.978-2.503.978h-4.043l.886-6.214h4.043c1.026 0 1.751.307 2.175.921.423.614.583 1.33.48 2.148zm4.949-7.173c-.81-.768-1.798-1.343-2.965-1.726-1.168-.383-2.459-.576-3.87-.576H75.291l-3.812 27.157h6.969l1.193-8.63h1.232l5.544 8.63h8.586l-6.545-9.32a22.295 22.295 0 0 0 2.502-1.362 8.575 8.575 0 0 0 1.926-1.65c.54-.626.987-1.38 1.347-2.263.36-.882.629-1.95.809-3.202.18-1.586.09-2.966-.27-4.144-.36-1.174-.943-2.147-1.751-2.914zM113.677 29.328l-1.348 9.09a2.811 2.811 0 0 1-.597 1.4 3.93 3.93 0 0 1-1.174.978 5.803 5.803 0 0 1-1.52.576 7.383 7.383 0 0 1-1.676.192 6.1 6.1 0 0 1-1.52-.192c-.501-.128-.931-.313-1.29-.556a2.635 2.635 0 0 1-.847-.92c-.206-.371-.27-.8-.193-1.286l1.348-9.282c.076-.511.275-.96.597-1.343a4.09 4.09 0 0 1 1.174-.958 5.865 5.865 0 0 1 1.52-.576 7.372 7.372 0 0 1 1.676-.191c.564 0 1.097.063 1.598.191.5.128.93.32 1.29.576.359.255.628.574.808.958.18.384.23.832.154 1.343zm6.506-4.085a7.429 7.429 0 0 0-2.156-2.916c-.95-.78-2.078-1.361-3.388-1.744a14.427 14.427 0 0 0-4.081-.576 15.86 15.86 0 0 0-4.216.576c-1.4.383-2.683.965-3.85 1.744a11.053 11.053 0 0 0-2.965 2.916c-.808 1.163-1.328 2.526-1.559 4.085L96.62 38.61c-.23 1.56-.103 2.922.385 4.085a7.415 7.415 0 0 0 2.157 2.915c.949.78 2.072 1.362 3.368 1.746 1.296.384 2.65.575 4.062.575 1.489 0 2.939-.191 4.351-.575a12.844 12.844 0 0 0 3.85-1.746 10.658 10.658 0 0 0 2.907-2.915c.783-1.163 1.29-2.524 1.52-4.085l1.349-9.282c.23-1.56.102-2.922-.386-4.085z"/>
        <path fill="#000" d="M98.139 12.538l-7.611-1.098-3.404-6.872-3.404 6.872-5.387.777-5.388-.777-3.404-6.872-3.403 6.872-5.502.794-5.503-.794-3.403-6.872-3.404 6.872-7.612 1.098 5.509 5.347-1.3 7.553 6.807-3.566 6.807 3.566-1.3-7.553 3.399-3.3 3.399 3.3-1.3 7.553 6.806-3.566 6.808 3.566-1.3-7.553 3.284-3.189 3.284 3.189-1.3 7.553 6.807-3.566 6.807 3.566-1.3-7.553 5.508-5.347"/>
        <path fill="#EEB844" d="M69.541 7.328l2.59 5.228 5.79.836-4.19 4.066.99 5.747-5.18-2.713-5.177 2.713.988-5.747-4.19-4.066 5.79-.836 2.59-5.228M87.124 7.328l2.59 5.228 5.788.836-4.189 4.066.99 5.747-5.18-2.713-5.177 2.713.99-5.747-4.19-4.066 5.789-.836 2.589-5.228M51.73 7.328l2.59 5.228 5.788.836-4.19 4.066.99 5.747-5.179-2.713-5.177 2.713.989-5.747-4.19-4.066 5.79-.836 2.589-5.228M93.628 51.76h1.177l-1.927 4.483h-1.056l-.228-1.241-.013-1.026h-.02l-.317 1.02-.528 1.247h-1.055l-.674-4.484h1.183l.228 2.147-.012.95h.025l.242-.944.724-1.57h.865l.242 1.577.012.937h.02l.26-.937.852-2.16M96.41 53.843c.349 0 .552-.26.584-.52.032-.272-.102-.506-.439-.506h-.667l-.146 1.026h.667zm-.605.975h-.203l-.197 1.425h-1.151l.63-4.484h1.798c.929 0 1.59.494 1.463 1.545-.115.83-.47 1.109-1.087 1.4l1.08 1.54h-1.417l-.916-1.426z"/>
        <path fill="#EEB844" d="M100.639 54.337l-.134-1.311h-.044l-.496 1.31h.674zm1.52 1.906h-1.221l-.172-.9h-1.201l-.4.9h-1.221l2.2-4.484h1.035l.98 4.484zM104.576 53.925c.356.007.56-.278.598-.582.038-.298-.108-.526-.439-.526h-.66l-.16 1.108h.661zm-1.494-2.166h1.8c1.1 0 1.513.804 1.424 1.615-.096.849-.725 1.558-1.812 1.558h-.719l-.184 1.311h-1.138l.629-4.484zM108.514 53.925c.355.007.559-.278.597-.582.039-.298-.108-.526-.438-.526h-.662l-.16 1.108h.663zm-1.495-2.166h1.8c1.099 0 1.512.804 1.423 1.615-.095.849-.724 1.558-1.812 1.558h-.718l-.184 1.311h-1.137l.628-4.484zM111.86 53.495h1.824l-.14 1.007h-1.825l-.095.67h1.984l-.147 1.071h-3.134l.63-4.484h3.134l-.153 1.07h-1.983l-.096.666M116.223 53.843c.35 0 .553-.26.585-.52.031-.272-.102-.506-.44-.506h-.667l-.146 1.026h.668zm-.604.975h-.204l-.197 1.425h-1.15l.629-4.484h1.8c.927 0 1.588.494 1.461 1.545-.114.83-.47 1.109-1.087 1.4l1.08 1.54h-1.417l-.915-1.426z"/>
    </g>
</svg>
