<svg xmlns="http://www.w3.org/2000/svg" xmlns:xlink="http://www.w3.org/1999/xlink" width="163" height="57" viewBox="0 0 163 57">
    <defs>
        <path id="a" d="M0 .707h162.547V57H0z"/>
    </defs>
    <g fill="none" fill-rule="evenodd">
        <g>
            <mask id="b" fill="#fff">
                <use xlink:href="#a"/>
            </mask>
            <path fill="#000105" d="M161.96 29.517l-.036-.098c-.582-1.528-1.462-2.844-2.618-3.911-1.115-1.028-2.447-1.802-3.959-2.299-2.68-.881-5.594-.891-8.428-.031-.568.172-1.125.382-1.668.629l-2.622-.654c-.962-.24-1.751-.398-2.414-.484a14.33 14.33 0 0 0-1.804-.128c-1.568 0-3.064.202-4.448.599-.72.207-1.409.474-2.063.799a11.936 11.936 0 0 0-1.76-3.279c-1.092-1.434-2.527-2.592-4.266-3.443-1.723-.842-3.753-1.269-6.032-1.269H41.745l4.802-4.678-10.051-1.457L32.002.707l-4.493 9.106-4.235.614-4.236-.614L14.545.707l-4.493 9.106L0 11.27l7.275 7.087-1.717 10.009 1.407-.74c-.146 1.511-.022 2.959.372 4.318a11.508 11.508 0 0 0 2.021 3.965l-6.333 5.245 2.114 3.386a13.103 13.103 0 0 0 2.756 3.15c.981.812 2.04 1.499 3.145 2.042 1.104.545 2.262.959 3.441 1.232 1.176.273 2.342.411 3.467.411a20.42 20.42 0 0 0 5.074-.62c.906-.233 1.77-.534 2.586-.901l-.161 1.155h96.887L123.31 57h38.259l-1.835-2.623c.454-.392.827-.97.958-1.931.13-1.082-.243-1.764-.581-2.144-.509-.574-1.273-.878-2.208-.878h-2.342c.318-.184.65-.343.951-.553 1.25-.87 2.332-1.96 3.217-3.239.987-1.43 1.609-3.081 1.845-4.891l.839-5.983c.277-1.906.125-3.668-.453-5.241" mask="url(#b)"/>
            <path fill="#000105" d="M161.96 29.517l-.036-.098c-.582-1.528-1.462-2.843-2.618-3.91-1.115-1.029-2.447-1.803-3.959-2.3-2.68-.881-5.594-.891-8.428-.032a13.59 13.59 0 0 0-1.668.63l-2.622-.654c-.962-.24-1.751-.398-2.414-.484a14.33 14.33 0 0 0-1.804-.128c-1.568 0-3.064.202-4.448.599a12.13 12.13 0 0 0-2.063.8 11.927 11.927 0 0 0-1.76-3.28c-1.092-1.434-2.527-2.592-4.266-3.443-1.723-.842-3.753-1.269-6.032-1.269h-14.336L103.8 28.145h-9.681l1.706-12.197H70.723l-3.247 5.646-1.632-5.646H41.745l4.802-4.678-10.051-1.457L32.002.707l-4.493 9.106-4.235.614-4.236-.614L14.545.707l-4.493 9.106L0 11.27l7.275 7.087-1.717 10.009 1.407-.74c-.146 1.511-.022 2.96.371 4.318a11.527 11.527 0 0 0 2.022 3.965l-6.333 5.245 2.114 3.386a13.103 13.103 0 0 0 2.756 3.15 15.928 15.928 0 0 0 6.586 3.274c1.176.273 2.342.411 3.467.411a20.42 20.42 0 0 0 5.074-.62c.906-.233 1.77-.534 2.586-.901l-.161 1.155h37.319l.528-3.846h1.694l-.547 3.846h26.481l1.05-7.509h9.681l-1.05 7.509h15.773l1.062-7.582h.169c2.121 0 4.085-.343 5.838-1.021.211-.081.418-.166.622-.255l-1.223 8.858h15.402l.56-4.03a9.549 9.549 0 0 0 1.464 1.592c1.12.973 2.443 1.704 3.932 2.173 1.332.418 2.723.631 4.135.631 1.4 0 2.808-.203 4.186-.602a13.578 13.578 0 0 0 3.989-1.902c1.25-.87 2.332-1.96 3.217-3.239.987-1.43 1.609-3.081 1.845-4.89l.839-5.984c.277-1.906.125-3.668-.453-5.241" mask="url(#b)"/>
        </g>
        <path fill="#EEB844" d="M139.139 34.675a3.305 3.305 0 0 1 .612.057l.342.065-.704 5.024c-.194 1.454-.067 2.791.377 3.97a7.316 7.316 0 0 0 2.06 2.988c.873.759 1.912 1.331 3.088 1.701 2.21.694 4.631.686 6.946.013a11.206 11.206 0 0 0 3.296-1.569 10.441 10.441 0 0 0 2.62-2.641c.771-1.116 1.258-2.417 1.447-3.867l.841-5.998c.224-1.542.104-2.939-.358-4.154l-.005-.015a7.824 7.824 0 0 0-2.005-2.996c-.864-.797-1.904-1.399-3.09-1.789-2.214-.728-4.634-.733-6.997-.015-1.121.34-2.187.857-3.168 1.538l-.687.476.217-1.529-1.916-.478c-.873-.218-1.571-.359-2.137-.432a11.933 11.933 0 0 0-1.507-.109c-1.347 0-2.622.17-3.792.506a9.531 9.531 0 0 0-3.37 1.737c-.106.086-.206.179-.306.272l-.646.59-.076-.717c-.051-.47-.124-.927-.217-1.358a9.707 9.707 0 0 0-1.753-3.847c-.865-1.137-2.015-2.062-3.419-2.748-1.396-.682-3.075-1.028-4.99-1.028H107.57l-1.705 12.196H91.391l1.705-12.196h-21l-5.349 9.3-2.688-9.3H32.414l-.59 4.215-.527-.615a11.77 11.77 0 0 0-1.313-1.325 10.766 10.766 0 0 0-2.535-1.608 11.02 11.02 0 0 0-2.744-.822c-2.118-.341-4.405-.271-6.614.204a12.409 12.409 0 0 0-3.801 1.492 10.536 10.536 0 0 0-3.071 2.814c-.866 1.18-1.459 2.614-1.764 4.262-.279 1.549-.225 3.012.161 4.346a9.11 9.11 0 0 0 1.881 3.485c.32.368.67.715 1.041 1.033l.328.282-6.729 5.573 1.016 1.625c.61.977 1.369 1.845 2.255 2.578a13.67 13.67 0 0 0 2.681 1.742c.941.464 1.926.817 2.928 1.049 1 .232 1.987.349 2.931.349 1.567 0 3.076-.183 4.483-.545 1.466-.376 2.794-.958 3.947-1.727a11.178 11.178 0 0 0 1.583-1.281l.764-.743-.55 3.93h32.521l.528-3.845h6.499l-.547 3.845h21.681l1.051-7.508h14.473l-1.049 7.508h10.98l1.062-7.581h2.233c1.827 0 3.504-.29 4.983-.862 1.46-.563 2.742-1.347 3.812-2.329l.748-.685-1.582 11.457h10.612l1.907-13.729.189-.081c.047-.02.101-.04.165-.058.226-.062.455-.092.698-.092zm9.198 15.057c-1.244 0-2.47-.187-3.642-.556a9.331 9.331 0 0 1-3.347-1.845 8.039 8.039 0 0 1-2.265-3.283c-.488-1.293-.628-2.748-.418-4.326l.605-4.313-.025-.001a1.964 1.964 0 0 0-.496.036l-1.933 13.922H124.73l1.427-10.341a12.947 12.947 0 0 1-3.304 1.848c-1.564.604-3.328.911-5.246.911h-1.598l-1.062 7.582h-12.455l1.05-7.509H90.543l-1.05 7.509H66.335l.546-3.846h-5.02l-.528 3.846H27.335l.381-2.721c-.301.248-.613.479-.933.692-1.222.815-2.625 1.429-4.171 1.827a18.747 18.747 0 0 1-4.664.568 14.284 14.284 0 0 1-9.005-3.308 11.427 11.427 0 0 1-2.41-2.754L5.18 41.502l6.56-5.433a10.761 10.761 0 0 1-.794-.819 9.83 9.83 0 0 1-2.031-3.762c-.418-1.443-.478-3.018-.179-4.68.326-1.76.963-3.294 1.894-4.563a11.26 11.26 0 0 1 3.283-3.007 13.123 13.123 0 0 1 4.025-1.581c2.296-.494 4.677-.566 6.884-.211 1.004.162 1.989.457 2.926.876a11.507 11.507 0 0 1 3.573 2.537l.457-3.267h32.83l2.363 8.175 4.702-8.175h22.263L92.23 29.788h13l1.705-12.196h12.907c2.027 0 3.814.37 5.311 1.102 1.507.737 2.744 1.733 3.679 2.961a10.44 10.44 0 0 1 1.885 4.133c.053.243.099.493.139.749a10.257 10.257 0 0 1 3.561-1.818c1.236-.355 2.579-.535 3.994-.535.467 0 .989.038 1.596.115.598.077 1.325.224 2.224.448l2.555.638-.079.561c.85-.51 1.751-.911 2.689-1.196 2.508-.761 5.081-.755 7.438.02a9.101 9.101 0 0 1 3.358 1.946 8.566 8.566 0 0 1 2.196 3.288l.001.001c.506 1.332.64 2.852.398 4.516l-.84 5.993c-.204 1.562-.733 2.972-1.57 4.185a11.168 11.168 0 0 1-2.804 2.824 11.956 11.956 0 0 1-3.509 1.672 13.377 13.377 0 0 1-3.727.537z"/>
        <path fill="#FFF" d="M19.12 26.153c.61-.317 1.33-.463 2.161-.439a7.202 7.202 0 0 1 2.307.476 5.01 5.01 0 0 1 2.015 1.391l4.761-3.296c-.562-.806-1.16-1.477-1.795-2.014a8.491 8.491 0 0 0-4.212-1.941 14.477 14.477 0 0 0-2.307-.184c-1.197 0-2.362.123-3.498.367a10.147 10.147 0 0 0-3.131 1.227 8.31 8.31 0 0 0-2.436 2.234c-.672.915-1.13 2.033-1.374 3.351-.219 1.221-.183 2.339.11 3.352a6.9 6.9 0 0 0 1.429 2.655 7.967 7.967 0 0 0 2.362 1.849 9.695 9.695 0 0 0 2.912.971c.513.074 1.031.178 1.557.311.524.135.982.3 1.373.495.39.196.696.446.916.751.219.306.293.653.219 1.044-.122.684-.525 1.184-1.208 1.501-.684.318-1.465.477-2.344.477-.977 0-1.954-.207-2.93-.623-.977-.415-1.747-1.038-2.308-1.868l-4.688 3.883a8.476 8.476 0 0 0 1.795 2.051 11.441 11.441 0 0 0 4.706 2.343c.842.196 1.654.294 2.436.294 1.392 0 2.704-.159 3.937-.477 1.233-.317 2.326-.793 3.278-1.428a8.826 8.826 0 0 0 2.399-2.362c.647-.94 1.093-2.045 1.337-3.315.293-1.612.269-2.949-.073-4.011-.342-1.062-.885-1.928-1.63-2.6-.745-.671-1.648-1.184-2.71-1.538a26.285 26.285 0 0 0-3.278-.861c-1.002-.22-1.795-.519-2.381-.898-.586-.378-.831-.946-.733-1.703.074-.659.415-1.147 1.026-1.465M51.497 26.702l.879-6.189H34.319l-3.626 25.931H48.75l.843-6.19H38.165l.55-3.882h10.511l.806-5.824H39.52l.55-3.846h11.427M66.075 33.186l-3.663-12.673h-6.556L52.23 46.444h6.556l1.025-7.472.33-5.237.147-.037 2.234 8.9h4.505l4.651-8.9.184.037-1.099 5.237-1.062 7.472h6.593l3.625-25.931h-6.556l-7.288 12.673M80.396 46.444h6.556l3.626-25.931h-6.556l-3.626 25.931M91.749 38.936h11.428l.879-6.227H92.628l-.879 6.227M121.527 29.669c-.05.44-.159.867-.33 1.282a3.417 3.417 0 0 1-.696 1.081 3.354 3.354 0 0 1-1.044.732 3.287 3.287 0 0 1-1.373.275h-3.81l.916-6.41h3.809c.952 0 1.642.293 2.07.879.427.586.579 1.307.458 2.161zm6.336-3.259a7.52 7.52 0 0 0-1.355-2.986c-.66-.866-1.539-1.568-2.637-2.106-1.099-.536-2.442-.805-4.029-.805h-10.366l-3.626 25.931h6.556l1.063-7.581h4.138c1.563 0 2.961-.238 4.194-.715 1.233-.476 2.289-1.123 3.168-1.941a9.21 9.21 0 0 0 2.088-2.875c.513-1.099.842-2.258.989-3.48a10.828 10.828 0 0 0-.183-3.442zM139.638 27.197a9.872 9.872 0 0 0-1.227-.092c-1.148 0-2.21.141-3.186.422a7.322 7.322 0 0 0-2.601 1.336c-.757.611-1.386 1.38-1.886 2.308-.501.928-.837 2.039-1.007 3.333l-1.649 11.94h6.19l1.648-11.867c.074-.512.294-.927.66-1.245a3.25 3.25 0 0 1 1.282-.678 4.864 4.864 0 0 1 1.52-.164c.524.024.994.109 1.41.256l.732-5.165c-.781-.195-1.41-.323-1.886-.384M151.78 33.991l-.843 6.19c-.073.513-.299.879-.677 1.099-.379.22-.776.33-1.191.33a1.56 1.56 0 0 1-1.062-.385c-.293-.256-.415-.605-.366-1.044l.842-6.19c.049-.439.275-.781.678-1.025.403-.244.787-.367 1.153-.367.367 0 .715.123 1.044.367.33.244.47.586.422 1.025zm5.878-2.948a5.636 5.636 0 0 0-1.447-2.18c-.635-.585-1.398-1.025-2.289-1.318a8.796 8.796 0 0 0-2.765-.44c-.977 0-1.948.147-2.912.44a9.124 9.124 0 0 0-2.674 1.318 7.998 7.998 0 0 0-2.069 2.18c-.562.867-.928 1.886-1.099 3.058l-.842 6.007c-.147 1.099-.062 2.069.256 2.912.317.842.8 1.544 1.447 2.106.646.562 1.416.983 2.307 1.263a9.142 9.142 0 0 0 2.766.422c.976 0 1.947-.141 2.912-.422a8.994 8.994 0 0 0 2.655-1.263 8.215 8.215 0 0 0 2.069-2.088c.574-.83.934-1.807 1.081-2.93l.842-6.007c.171-1.172.092-2.191-.238-3.058z"/>
        <path fill="#000" d="M43.014 12.418l-7.609-1.102-3.403-6.895-3.402 6.895-5.326.771-5.327-.771-3.402-6.895-3.402 6.895-7.61 1.102 5.507 5.365-1.3 7.579 6.805-3.578 6.805 3.578-1.3-7.579 3.224-3.141 3.223 3.141-1.299 7.579 6.804-3.578 6.805 3.578-1.3-7.579 5.507-5.365"/>
        <path fill="#EEB844" d="M32.002 7.363l2.538 5.143 5.674.822-4.106 4 .97 5.654-5.076-2.669-5.075 2.669.969-5.654-4.105-4 5.674-.822 2.537-5.143M14.545 7.363l2.538 5.143 5.674.822-4.106 4 .969 5.654-5.075-2.669-5.075 2.669.969-5.654-4.106-4 5.674-.822 2.538-5.143M129.126 50.38h1.48l-2.424 5.664h-1.328l-.288-1.568-.016-1.296h-.024l-.4 1.288-.664 1.576h-1.328l-.848-5.664h1.488l.288 2.712-.016 1.2h.032l.304-1.192.912-1.984h1.088l.304 1.992.016 1.184h.024l.328-1.184 1.072-2.728M132.626 53.012c.44 0 .696-.328.736-.656.04-.344-.128-.64-.552-.64h-.84l-.184 1.296h.84zm-.76 1.232h-.256l-.249 1.8h-1.448l.792-5.664h2.264c1.168 0 2 .624 1.841 1.952-.145 1.048-.592 1.4-1.369 1.768l1.361 1.944h-1.784l-1.152-1.8z"/>
        <path fill="#EEB844" d="M137.948 53.636l-.168-1.656h-.056l-.624 1.656h.848zm1.912 2.408h-1.536l-.216-1.136h-1.512l-.504 1.136h-1.536l2.768-5.664h1.304l1.232 5.664zM142.903 53.116c.448.008.704-.352.752-.736.048-.376-.136-.664-.552-.664h-.832l-.2 1.4h.832zm-1.88-2.736h2.264c1.384 0 1.904 1.016 1.792 2.04-.12 1.072-.912 1.968-2.28 1.968h-.904l-.232 1.656h-1.432l.792-5.664zM147.858 53.116c.447.008.703-.352.752-.736.048-.376-.136-.664-.552-.664h-.833l-.2 1.4h.833zm-1.881-2.736h2.265c1.384 0 1.904 1.016 1.792 2.04-.12 1.072-.912 1.968-2.28 1.968h-.904l-.232 1.656h-1.432l.791-5.664zM152.068 52.572h2.296l-.176 1.272h-2.296l-.12.848h2.496l-.184 1.352h-3.944l.792-5.664h3.944l-.192 1.352h-2.496l-.12.84M157.559 53.012c.44 0 .696-.328.736-.656.04-.344-.128-.64-.552-.64h-.84l-.184 1.296h.84zm-.76 1.232h-.256l-.247 1.8h-1.448l.791-5.664h2.264c1.168 0 2 .624 1.84 1.952-.143 1.048-.592 1.4-1.367 1.768l1.359 1.944h-1.784l-1.152-1.8z"/>
    </g>
</svg>
