<svg xmlns="http://www.w3.org/2000/svg" xmlns:xlink="http://www.w3.org/1999/xlink" width="27" height="12" viewBox="0 0 27 12">
    <defs>
        <path id="a" d="M10.028.23H7.131L5.014 4.675 2.897.23H0l3.74 7.095v4.428h2.547V7.325L10.028.23zm6.006 11.754c-3.2 0-5.794-2.601-5.794-5.992S12.835 0 16.034 0c3.2 0 5.794 2.6 5.794 5.992 0 3.39-2.594 5.992-5.794 5.992zm0-2.568c-1.814 0-3.247-1.367-3.247-3.424 0-2.058 1.433-3.424 3.247-3.424 1.815 0 3.248 1.366 3.248 3.424 0 2.057-1.433 3.424-3.248 3.424zm9.803 2.04c-.35.363-.78.544-1.29.544-.509 0-.939-.181-1.305-.543a1.911 1.911 0 0 1-.525-1.35c0-.527.175-.971.525-1.333.366-.379.796-.56 1.306-.56.509 0 .939.181 1.289.56.366.362.541.806.541 1.333 0 .527-.175.971-.541 1.35z"/>
    </defs>
    <use fill="#FFF" fill-rule="evenodd" xlink:href="#a"/>
</svg>
