<?xml version="1.0" encoding="utf-8"?>
<!-- Generator: Adobe Illustrator 22.1.0, SVG Export Plug-In . SVG Version: 6.00 Build 0)  -->
<svg version="1.1" id="Слой_1" xmlns="http://www.w3.org/2000/svg" xmlns:xlink="http://www.w3.org/1999/xlink" x="0px" y="0px"
	 viewBox="0 0 240 240" style="enable-background:new 0 0 240 240;" xml:space="preserve">
<style type="text/css">
	.st0{fill:#FFFFFF;}
</style>
<g>
	<g>
		<path class="st0" d="M69.4,30.3L69.4,30.3c0,2.5-2,4.5-4.5,4.5H54.3c-4.1,0-6,5-3.1,7.8l36.4,33.8c1.9,1.8,1.9,4.8,0,6.6L87,83.5
			c-1.7,1.6-4.4,1.6-6.1,0l-37.7-35c-2.9-2.7-7.5-0.6-7.5,3.3v9.9c0,2.5-2,4.5-4.5,4.5h-0.7c-2.5,0-4.5-2-4.5-4.5V30.3
			c0-2.5,2-4.5,4.5-4.5H65C67.4,25.8,69.4,27.8,69.4,30.3z M69.4,207.5L69.4,207.5c0-2.5-2-4.5-4.5-4.5H54.3c-4.1,0-6-5-3.1-7.8
			l36.4-33.8c1.9-1.8,1.9-4.8,0-6.6l-0.7-0.6c-1.7-1.6-4.4-1.6-6.1,0l-37.7,35c-2.9,2.7-7.5,0.6-7.5-3.3v-9.9c0-2.5-2-4.5-4.5-4.5
			h-0.7c-2.5,0-4.5,2-4.5,4.5v31.4c0,2.5,2,4.5,4.5,4.5H65C67.4,212,69.4,210,69.4,207.5z M176.3,25.8h35.9v39c0,2.5-2,4.5-4.5,4.5
			h0c-2.5,0-4.5-2-4.5-4.5V54.2c0-4.1-5-6-7.8-3.1l-33.8,36.3c-1.8,1.9-4.8,1.9-6.6,0l-0.6-0.6c-1.6-1.7-1.6-4.4,0-6.1l35-37.6
			c2.7-2.9,0.6-7.5-3.3-7.5h-9.9c-2.5,0-4.5-2-4.5-4.5l0-0.7C171.8,27.8,173.8,25.8,176.3,25.8z M176.3,212h31.4
			c2.5,0,4.5-2,4.5-4.5V173c0-2.5-2-4.5-4.5-4.5h0c-2.5,0-4.5,2-4.5,4.5v10.6c0,4.1-5,6-7.8,3.1l-33.8-36.3c-1.8-1.9-4.8-1.9-6.6,0
			l-0.6,0.6c-1.6,1.7-1.6,4.4,0,6.1l35,37.6c2.7,2.9,0.6,7.5-3.3,7.5h-9.9c-2.5,0-4.5,2-4.5,4.5l0,0.7
			C171.8,210,173.8,212,176.3,212z"/>
	</g>
</g>
</svg>
